# xmcd
#
# Track frame offsets: 
#        150
#        24714
#        45211
#        64730
#        96938
#        118473
#        142922
#        166627
#        191785
#        216089
#        228891
#
# Disc length: 3381 seconds
#
# Revision: 2
# Processed by: cddbd v1.5.2PL0 Copyright (c) Steve Scherf et al.
# Submitted via: ExactAudioCopy v1.0b3
#
DISCID=920d330b
DTITLE=Deanna Bogart, Dan Leonard, Scott Ambush, Mike Aubin - 11th Hou
DTITLE=r
DYEAR=2009
DGENRE=Blues
TTITLE0=Sweet Pea
TTITLE1=High Horse
TTITLE2=Love And Attention
TTITLE3=Cause We've Ended As Lovers
TTITLE4=Hear N Soul
TTITLE5=Almonjoi
TTITLE6=Have A Little Faith
TTITLE7=Avery's Town
TTITLE8=Unkl Funkl
TTITLE9=Thrash Boogie
TTITLE10=Eleventh Hour
EXTD=
EXTT0=
EXTT1=
EXTT2=
EXTT3=
EXTT4=
EXTT5=
EXTT6=
EXTT7=
EXTT8=
EXTT9=
EXTT10=
PLAYORDER=
